<svg width="608" height="449" viewBox="0 0 608 449" fill="none" xmlns="http://www.w3.org/2000/svg">
<rect y="72" width="482" height="322" rx="20" fill="url(#paint0_linear_2_229)"/>
<mask id="mask0_2_229" style="mask-type:alpha" maskUnits="userSpaceOnUse" x="0" y="72" width="482" height="322">
<rect y="72" width="482" height="322" rx="20" fill="#8476E3"/>
</mask>
<g mask="url(#mask0_2_229)">
<circle cx="37.7667" cy="139.176" r="70.2667" stroke="#9487EA"/>
<circle cx="50.6333" cy="131.824" r="70.2667" stroke="#9487EA"/>
<circle cx="63.5" cy="124.471" r="70.2667" stroke="#9487EA"/>
<circle cx="76.3666" cy="117.119" r="70.2667" stroke="#9487EA"/>
<circle cx="89.2333" cy="109.767" r="70.2667" stroke="#9487EA"/>
<circle cx="368.299" cy="325.415" r="68.2015" transform="rotate(65 368.299 325.415)" stroke="#6657D2"/>
<circle cx="380.048" cy="333.719" r="68.2015" transform="rotate(65 380.048 333.719)" stroke="#6657D2"/>
<circle cx="391.795" cy="342.024" r="68.2015" transform="rotate(65 391.795 342.024)" stroke="#6657D2"/>
<circle cx="403.544" cy="350.328" r="68.2015" transform="rotate(65 403.544 350.328)" stroke="#6657D2"/>
<circle cx="415.292" cy="358.632" r="68.2015" transform="rotate(65 415.292 358.632)" stroke="#6657D2"/>
<circle cx="427.039" cy="366.936" r="68.2015" transform="rotate(65 427.039 366.936)" stroke="#6657D2"/>
<circle cx="438.788" cy="375.241" r="68.2015" transform="rotate(65 438.788 375.241)" stroke="#6657D2"/>
<circle cx="450.535" cy="383.545" r="68.2015" transform="rotate(65 450.535 383.545)" stroke="#6657D2"/>
</g>
<path d="M48.1172 301.723H49.9043L44.7578 316H43.1172L38 301.723H39.7578L43.0391 310.961C43.4167 312.022 43.7161 313.054 43.9375 314.057C44.1719 313.002 44.4779 311.95 44.8555 310.902L48.1172 301.723ZM60.8516 316L59.0742 311.459H53.3516L51.5938 316H49.9141L55.5586 301.664H56.9551L62.5703 316H60.8516ZM58.5566 309.965L56.8965 305.541C56.6816 304.981 56.4603 304.294 56.2324 303.48C56.0892 304.105 55.8841 304.792 55.6172 305.541L53.9375 309.965H58.5566ZM64.5332 316V301.723H66.1934V314.496H72.4922V316H64.5332ZM74.9238 316V301.723H76.584V316H74.9238ZM91.9062 308.724C91.9062 311.081 91.265 312.885 89.9824 314.135C88.7064 315.378 86.8672 316 84.4648 316H80.5098V301.723H84.8848C87.1048 301.723 88.8301 302.338 90.0605 303.568C91.291 304.799 91.9062 306.517 91.9062 308.724ZM90.1484 308.783C90.1484 306.921 89.6797 305.518 88.7422 304.574C87.8112 303.63 86.4245 303.158 84.582 303.158H82.1699V314.564H84.1914C86.1706 314.564 87.6582 314.079 88.6543 313.109C89.6504 312.133 90.1484 310.691 90.1484 308.783ZM104.689 316H103.029V303.197H98.5078V301.723H109.211V303.197H104.689V316ZM122.209 316H120.549V309.281H113.029V316H111.369V301.723H113.029V307.797H120.549V301.723H122.209V316ZM136.916 301.723V310.961C136.916 312.588 136.424 313.868 135.441 314.799C134.458 315.73 133.107 316.195 131.389 316.195C129.67 316.195 128.339 315.726 127.395 314.789C126.457 313.851 125.988 312.562 125.988 310.922V301.723H127.648V311.039C127.648 312.23 127.974 313.145 128.625 313.783C129.276 314.421 130.233 314.74 131.496 314.74C132.701 314.74 133.628 314.421 134.279 313.783C134.93 313.139 135.256 312.217 135.256 311.019V301.723H136.916ZM142.365 310.062V316H140.705V301.723H144.621C146.372 301.723 147.665 302.058 148.498 302.728C149.338 303.399 149.758 304.408 149.758 305.756C149.758 307.644 148.801 308.92 146.887 309.584L150.764 316H148.801L145.344 310.062H142.365ZM142.365 308.637H144.641C145.812 308.637 146.672 308.405 147.219 307.943C147.766 307.474 148.039 306.775 148.039 305.844C148.039 304.9 147.759 304.219 147.199 303.803C146.646 303.386 145.754 303.178 144.523 303.178H142.365V308.637Z" fill="white"/>
<path d="M49.6123 342.147C49.6123 344.876 49.1719 346.903 48.291 348.227C47.4173 349.552 46.0781 350.215 44.2734 350.215C42.526 350.215 41.2012 349.531 40.2988 348.163C39.3965 346.795 38.9453 344.79 38.9453 342.147C38.9453 339.376 39.3822 337.335 40.2559 336.024C41.1367 334.707 42.4759 334.048 44.2734 334.048C46.028 334.048 47.3564 334.735 48.2588 336.11C49.1611 337.485 49.6123 339.498 49.6123 342.147ZM41.502 342.147C41.502 344.289 41.7204 345.818 42.1572 346.734C42.6012 347.651 43.3066 348.109 44.2734 348.109C45.2402 348.109 45.9456 347.644 46.3896 346.713C46.8408 345.782 47.0664 344.26 47.0664 342.147C47.0664 340.042 46.8408 338.52 46.3896 337.582C45.9456 336.637 45.2402 336.164 44.2734 336.164C43.3066 336.164 42.6012 336.626 42.1572 337.55C41.7204 338.474 41.502 340.006 41.502 342.147ZM56.8418 334.091C58.3314 334.091 59.5094 334.434 60.376 335.122C61.2425 335.802 61.6758 336.715 61.6758 337.861C61.6758 339.473 60.709 340.754 58.7754 341.707C60.0072 342.323 60.8809 342.971 61.3965 343.651C61.9193 344.332 62.1807 345.091 62.1807 345.929C62.1807 347.225 61.7044 348.263 60.752 349.044C59.7995 349.824 58.5104 350.215 56.8848 350.215C55.1803 350.215 53.859 349.849 52.9209 349.119C51.9827 348.389 51.5137 347.354 51.5137 346.015C51.5137 345.141 51.7572 344.357 52.2441 343.662C52.7383 342.96 53.5439 342.337 54.6611 341.793C53.7015 341.22 53.0176 340.615 52.6094 339.977C52.2012 339.34 51.9971 338.624 51.9971 337.829C51.9971 336.69 52.4447 335.784 53.3398 335.111C54.235 334.431 55.4023 334.091 56.8418 334.091ZM53.9307 345.929C53.9307 346.673 54.1921 347.253 54.7148 347.669C55.2376 348.077 55.9466 348.281 56.8418 348.281C57.7656 348.281 58.4818 348.07 58.9902 347.647C59.5059 347.218 59.7637 346.638 59.7637 345.907C59.7637 345.327 59.5273 344.797 59.0547 344.317C58.582 343.837 57.8659 343.393 56.9062 342.985L56.5947 342.846C55.6494 343.261 54.9691 343.719 54.5537 344.221C54.1383 344.715 53.9307 345.284 53.9307 345.929ZM56.8203 336.035C56.1042 336.035 55.5277 336.214 55.0908 336.572C54.654 336.923 54.4355 337.403 54.4355 338.012C54.4355 338.384 54.5143 338.717 54.6719 339.011C54.8294 339.304 55.0586 339.573 55.3594 339.816C55.6602 340.053 56.1686 340.339 56.8848 340.676C57.7441 340.296 58.3493 339.899 58.7002 339.483C59.0583 339.061 59.2373 338.57 59.2373 338.012C59.2373 337.403 59.0153 336.923 58.5713 336.572C58.1344 336.214 57.5508 336.035 56.8203 336.035ZM71.5371 334.295L65.6934 350H63.3086L69.1631 334.295H71.5371ZM83.3428 350H72.6973V348.088L76.7471 344.016C77.943 342.792 78.7344 341.925 79.1211 341.417C79.515 340.901 79.8014 340.418 79.9805 339.967C80.1595 339.516 80.249 339.032 80.249 338.516C80.249 337.807 80.0342 337.249 79.6045 336.841C79.182 336.432 78.5947 336.228 77.8428 336.228C77.2412 336.228 76.6576 336.339 76.0918 336.561C75.5332 336.783 74.8851 337.184 74.1475 337.765L72.7832 336.099C73.6569 335.362 74.5055 334.839 75.3291 334.531C76.1527 334.223 77.0299 334.069 77.9609 334.069C79.4219 334.069 80.5928 334.452 81.4736 335.219C82.3545 335.978 82.7949 337.002 82.7949 338.291C82.7949 339 82.666 339.673 82.4082 340.31C82.1576 340.948 81.7673 341.607 81.2373 342.287C80.7145 342.96 79.8408 343.873 78.6162 345.026L75.8877 347.669V347.776H83.3428V350ZM95.9111 350H85.2656V348.088L89.3154 344.016C90.5114 342.792 91.3027 341.925 91.6895 341.417C92.0833 340.901 92.3698 340.418 92.5488 339.967C92.7279 339.516 92.8174 339.032 92.8174 338.516C92.8174 337.807 92.6025 337.249 92.1729 336.841C91.7503 336.432 91.1631 336.228 90.4111 336.228C89.8096 336.228 89.2259 336.339 88.6602 336.561C88.1016 336.783 87.4535 337.184 86.7158 337.765L85.3516 336.099C86.2253 335.362 87.0739 334.839 87.8975 334.531C88.721 334.223 89.5983 334.069 90.5293 334.069C91.9902 334.069 93.1611 334.452 94.042 335.219C94.9229 335.978 95.3633 337.002 95.3633 338.291C95.3633 339 95.2344 339.673 94.9766 340.31C94.7259 340.948 94.3356 341.607 93.8057 342.287C93.2829 342.96 92.4092 343.873 91.1846 345.026L88.4561 347.669V347.776H95.9111V350Z" fill="white"/>
<path d="M186.076 337.002C184.507 337.002 183.267 337.526 182.355 338.574C181.451 339.616 180.998 341.045 180.998 342.861C180.998 344.73 181.434 346.175 182.307 347.197C183.186 348.213 184.436 348.721 186.057 348.721C187.053 348.721 188.189 348.542 189.465 348.183V349.639C188.475 350.01 187.255 350.195 185.803 350.195C183.7 350.195 182.076 349.557 180.93 348.281C179.79 347.005 179.221 345.192 179.221 342.842C179.221 341.37 179.494 340.081 180.041 338.974C180.594 337.868 181.389 337.015 182.424 336.416C183.465 335.817 184.689 335.517 186.096 335.517C187.593 335.517 188.902 335.791 190.021 336.338L189.318 337.764C188.238 337.256 187.157 337.002 186.076 337.002ZM201.555 350L199.777 345.459H194.055L192.297 350H190.617L196.262 335.664H197.658L203.273 350H201.555ZM199.26 343.965L197.6 339.541C197.385 338.981 197.163 338.294 196.936 337.48C196.792 338.105 196.587 338.792 196.32 339.541L194.641 343.965H199.26ZM206.896 344.062V350H205.236V335.723H209.152C210.904 335.723 212.196 336.058 213.029 336.728C213.869 337.399 214.289 338.408 214.289 339.756C214.289 341.644 213.332 342.92 211.418 343.584L215.295 350H213.332L209.875 344.062H206.896ZM206.896 342.637H209.172C210.344 342.637 211.203 342.405 211.75 341.943C212.297 341.474 212.57 340.775 212.57 339.844C212.57 338.9 212.29 338.219 211.73 337.803C211.177 337.386 210.285 337.178 209.055 337.178H206.896V342.637ZM228.996 342.724C228.996 345.081 228.355 346.885 227.072 348.135C225.796 349.378 223.957 350 221.555 350H217.6V335.723H221.975C224.195 335.723 225.92 336.338 227.15 337.568C228.381 338.799 228.996 340.517 228.996 342.724ZM227.238 342.783C227.238 340.921 226.77 339.518 225.832 338.574C224.901 337.63 223.514 337.158 221.672 337.158H219.26V348.564H221.281C223.26 348.564 224.748 348.079 225.744 347.109C226.74 346.133 227.238 344.691 227.238 342.783ZM248.225 350H246.564V343.281H239.045V350H237.385V335.723H239.045V341.797H246.564V335.723H248.225V350ZM264.543 342.842C264.543 345.127 263.964 346.924 262.805 348.232C261.652 349.541 260.048 350.195 257.99 350.195C255.887 350.195 254.263 349.554 253.117 348.271C251.978 346.982 251.408 345.166 251.408 342.822C251.408 340.498 251.981 338.698 253.127 337.422C254.273 336.139 255.9 335.498 258.01 335.498C260.061 335.498 261.662 336.149 262.814 337.451C263.967 338.753 264.543 340.55 264.543 342.842ZM253.166 342.842C253.166 344.775 253.576 346.243 254.396 347.246C255.223 348.242 256.421 348.74 257.99 348.74C259.572 348.74 260.767 348.242 261.574 347.246C262.382 346.25 262.785 344.782 262.785 342.842C262.785 340.921 262.382 339.466 261.574 338.476C260.773 337.48 259.585 336.982 258.01 336.982C256.428 336.982 255.223 337.484 254.396 338.486C253.576 339.482 253.166 340.934 253.166 342.842ZM267.736 350V335.723H269.396V348.496H275.695V350H267.736ZM289.523 342.724C289.523 345.081 288.882 346.885 287.6 348.135C286.324 349.378 284.484 350 282.082 350H278.127V335.723H282.502C284.722 335.723 286.447 336.338 287.678 337.568C288.908 338.799 289.523 340.517 289.523 342.724ZM287.766 342.783C287.766 340.921 287.297 339.518 286.359 338.574C285.428 337.63 284.042 337.158 282.199 337.158H279.787V348.564H281.809C283.788 348.564 285.275 348.079 286.271 347.109C287.268 346.133 287.766 344.691 287.766 342.783ZM300.676 350H292.717V335.723H300.676V337.197H294.377V341.797H300.295V343.262H294.377V348.516H300.676V350ZM305.51 344.062V350H303.85V335.723H307.766C309.517 335.723 310.809 336.058 311.643 336.728C312.482 337.399 312.902 338.408 312.902 339.756C312.902 341.644 311.945 342.92 310.031 343.584L313.908 350H311.945L308.488 344.062H305.51ZM305.51 342.637H307.785C308.957 342.637 309.816 342.405 310.363 341.943C310.91 341.474 311.184 340.775 311.184 339.844C311.184 338.9 310.904 338.219 310.344 337.803C309.79 337.386 308.898 337.178 307.668 337.178H305.51V342.637Z" fill="white"/>
<path d="M186.862 319L182.308 305.884H182.222C182.343 307.832 182.404 309.658 182.404 311.362V319H180.073V303.295H183.693L188.055 315.788H188.119L192.609 303.295H196.24V319H193.77V311.233C193.77 310.453 193.787 309.436 193.823 308.182C193.866 306.929 193.902 306.17 193.931 305.905H193.845L189.129 319H186.862ZM204.114 319.215C202.632 319.215 201.475 318.678 200.645 317.603C199.814 316.529 199.398 315.022 199.398 313.081C199.398 311.133 199.817 309.618 200.655 308.537C201.5 307.448 202.668 306.904 204.157 306.904C205.718 306.904 206.907 307.481 207.724 308.634H207.853C207.731 307.781 207.67 307.108 207.67 306.614V302.285H210.205V319H208.229L207.788 317.442H207.67C206.861 318.624 205.675 319.215 204.114 319.215ZM204.791 317.174C205.829 317.174 206.585 316.884 207.058 316.304C207.53 315.716 207.774 314.767 207.788 313.457V313.102C207.788 311.606 207.545 310.542 207.058 309.912C206.571 309.282 205.808 308.967 204.77 308.967C203.882 308.967 203.198 309.328 202.718 310.052C202.238 310.768 201.998 311.792 201.998 313.124C201.998 314.442 202.231 315.448 202.696 316.142C203.162 316.83 203.86 317.174 204.791 317.174ZM226.587 319L222.032 305.884H221.946C222.068 307.832 222.129 309.658 222.129 311.362V319H219.798V303.295H223.418L227.779 315.788H227.844L232.334 303.295H235.965V319H233.494V311.233C233.494 310.453 233.512 309.436 233.548 308.182C233.591 306.929 233.627 306.17 233.655 305.905H233.569L228.854 319H226.587ZM250.37 313.038C250.37 314.979 249.872 316.493 248.877 317.582C247.882 318.67 246.496 319.215 244.72 319.215C243.61 319.215 242.629 318.964 241.776 318.463C240.924 317.961 240.269 317.242 239.811 316.304C239.352 315.365 239.123 314.277 239.123 313.038C239.123 311.112 239.617 309.608 240.605 308.526C241.594 307.445 242.987 306.904 244.784 306.904C246.503 306.904 247.864 307.459 248.866 308.569C249.869 309.672 250.37 311.162 250.37 313.038ZM241.723 313.038C241.723 315.781 242.736 317.152 244.763 317.152C246.768 317.152 247.771 315.781 247.771 313.038C247.771 310.324 246.761 308.967 244.741 308.967C243.681 308.967 242.911 309.318 242.432 310.019C241.959 310.721 241.723 311.727 241.723 313.038ZM261.263 315.616C261.263 316.776 260.84 317.668 259.995 318.291C259.15 318.907 257.94 319.215 256.364 319.215C254.782 319.215 253.51 318.975 252.551 318.495V316.314C253.947 316.959 255.247 317.281 256.45 317.281C258.004 317.281 258.781 316.812 258.781 315.874C258.781 315.573 258.695 315.322 258.523 315.122C258.352 314.921 258.069 314.714 257.675 314.499C257.281 314.284 256.733 314.041 256.031 313.768C254.663 313.238 253.736 312.709 253.249 312.179C252.769 311.649 252.529 310.961 252.529 310.116C252.529 309.099 252.938 308.311 253.754 307.753C254.577 307.187 255.695 306.904 257.105 306.904C258.502 306.904 259.823 307.187 261.069 307.753L260.253 309.654C258.971 309.124 257.893 308.859 257.02 308.859C255.688 308.859 255.021 309.239 255.021 309.998C255.021 310.37 255.193 310.685 255.537 310.943C255.888 311.201 256.647 311.556 257.814 312.007C258.796 312.386 259.508 312.734 259.952 313.049C260.396 313.364 260.726 313.729 260.94 314.144C261.155 314.553 261.263 315.043 261.263 315.616ZM274.454 319H271.919V311.695C271.919 310.779 271.733 310.095 271.36 309.643C270.995 309.192 270.411 308.967 269.609 308.967C268.549 308.967 267.769 309.285 267.268 309.923C266.773 310.553 266.526 311.613 266.526 313.102V319H264.002V302.285H266.526V306.528C266.526 307.209 266.483 307.935 266.397 308.709H266.559C266.902 308.136 267.379 307.692 267.987 307.377C268.603 307.062 269.319 306.904 270.136 306.904C273.015 306.904 274.454 308.354 274.454 311.255V319ZM282.672 317.195C283.732 317.195 284.491 316.891 284.949 316.282C285.415 315.666 285.647 314.739 285.647 313.5V313.102C285.647 311.634 285.408 310.578 284.928 309.933C284.455 309.289 283.689 308.967 282.629 308.967C281.727 308.967 281.039 309.325 280.566 310.041C280.094 310.757 279.857 311.785 279.857 313.124C279.857 315.838 280.796 317.195 282.672 317.195ZM281.952 319.215C280.484 319.215 279.335 318.678 278.504 317.603C277.673 316.522 277.258 315.015 277.258 313.081C277.258 311.147 277.68 309.636 278.525 308.548C279.37 307.452 280.534 306.904 282.017 306.904C282.761 306.904 283.427 307.044 284.015 307.323C284.609 307.595 285.139 308.046 285.604 308.677H285.69L285.97 307.119H288.064V324.285H285.529V319.247C285.529 318.932 285.544 318.599 285.572 318.248C285.601 317.897 285.626 317.628 285.647 317.442H285.508C284.763 318.624 283.578 319.215 281.952 319.215ZM300.053 319L299.698 317.442H299.569C299.218 317.994 298.717 318.427 298.065 318.742C297.421 319.057 296.683 319.215 295.853 319.215C294.413 319.215 293.339 318.857 292.63 318.141C291.921 317.424 291.566 316.339 291.566 314.886V307.119H294.112V314.445C294.112 315.355 294.299 316.039 294.671 316.497C295.043 316.948 295.627 317.174 296.422 317.174C297.482 317.174 298.259 316.859 298.753 316.228C299.254 315.591 299.505 314.528 299.505 313.038V307.119H302.04V319H300.053ZM311.665 306.904C312.174 306.904 312.592 306.94 312.922 307.012L312.675 309.364C312.317 309.278 311.944 309.235 311.558 309.235C310.548 309.235 309.728 309.565 309.098 310.224C308.475 310.882 308.163 311.738 308.163 312.791V319H305.639V307.119H307.615L307.948 309.214H308.077C308.471 308.505 308.983 307.943 309.613 307.527C310.251 307.112 310.935 306.904 311.665 306.904ZM330.861 319L329.293 314.639H323.288L321.752 319H319.045L324.921 303.23H327.714L333.59 319H330.861ZM328.616 312.426L327.145 308.15C327.037 307.864 326.887 307.413 326.693 306.797C326.507 306.181 326.378 305.73 326.307 305.443C326.113 306.324 325.83 307.287 325.458 308.333L324.04 312.426H328.616ZM337.919 319H335.395V302.285H337.919V319ZM348.973 319L348.468 317.346H348.382C347.809 318.069 347.232 318.563 346.652 318.828C346.072 319.086 345.327 319.215 344.418 319.215C343.251 319.215 342.338 318.9 341.679 318.269C341.027 317.639 340.701 316.748 340.701 315.595C340.701 314.37 341.156 313.446 342.065 312.823C342.975 312.2 344.361 311.86 346.223 311.803L348.274 311.738V311.104C348.274 310.345 348.095 309.78 347.737 309.407C347.386 309.028 346.839 308.838 346.094 308.838C345.485 308.838 344.901 308.927 344.343 309.106C343.784 309.285 343.247 309.497 342.731 309.74L341.915 307.935C342.56 307.599 343.265 307.345 344.031 307.173C344.798 306.994 345.521 306.904 346.201 306.904C347.712 306.904 348.851 307.234 349.617 307.892C350.391 308.551 350.777 309.586 350.777 310.997V319H348.973ZM345.213 317.281C346.13 317.281 346.864 317.027 347.415 316.518C347.974 316.003 348.253 315.283 348.253 314.359V313.328L346.728 313.392C345.539 313.435 344.672 313.636 344.128 313.994C343.591 314.345 343.322 314.886 343.322 315.616C343.322 316.146 343.48 316.558 343.795 316.851C344.11 317.138 344.583 317.281 345.213 317.281ZM364.312 319H361.777V311.674C361.777 310.764 361.605 310.087 361.262 309.643C360.918 309.192 360.381 308.967 359.65 308.967C358.676 308.967 357.96 309.285 357.502 309.923C357.051 310.553 356.825 311.606 356.825 313.081V319H354.301V307.119H356.277L356.632 308.677H356.761C357.09 308.111 357.566 307.674 358.189 307.366C358.82 307.058 359.511 306.904 360.263 306.904C362.089 306.904 363.299 307.527 363.894 308.773H364.065C364.416 308.186 364.91 307.728 365.548 307.398C366.185 307.069 366.916 306.904 367.739 306.904C369.157 306.904 370.188 307.262 370.833 307.978C371.485 308.695 371.811 309.787 371.811 311.255V319H369.286V311.674C369.286 310.764 369.111 310.087 368.76 309.643C368.416 309.192 367.879 308.967 367.148 308.967C366.167 308.967 365.448 309.275 364.989 309.891C364.538 310.499 364.312 311.437 364.312 312.705V319Z" fill="white"/>
<path d="M55.0625 179.859C55.0625 181.516 54.4635 182.849 53.2656 183.859C52.0677 184.859 50.3906 185.458 48.2344 185.656V188.859H46.0938V185.719C43.5521 185.667 41.3229 185.219 39.4062 184.375V180.25C40.3125 180.698 41.401 181.094 42.6719 181.437C43.9531 181.781 45.0938 181.984 46.0938 182.047V177.203L45.0469 176.797C42.9844 175.984 41.5208 175.104 40.6562 174.156C39.8021 173.198 39.375 172.016 39.375 170.609C39.375 169.099 39.9635 167.859 41.1406 166.891C42.3281 165.911 43.9792 165.318 46.0938 165.109V162.719H48.2344V165.047C50.6198 165.151 52.776 165.63 54.7031 166.484L53.2344 170.141C51.6094 169.474 49.9427 169.068 48.2344 168.922V173.531C50.2656 174.312 51.7083 174.989 52.5625 175.562C53.4271 176.135 54.0573 176.766 54.4531 177.453C54.8594 178.141 55.0625 178.943 55.0625 179.859ZM50.3594 180.094C50.3594 179.656 50.1823 179.286 49.8281 178.984C49.474 178.682 48.9427 178.37 48.2344 178.047V181.937C49.651 181.698 50.3594 181.083 50.3594 180.094ZM44.0781 170.609C44.0781 171.068 44.2344 171.448 44.5469 171.75C44.8698 172.042 45.3854 172.344 46.0938 172.656V168.984C44.75 169.182 44.0781 169.724 44.0781 170.609ZM59.8281 187L68.4062 168.25H57.1406V164.187H73.5312V167.219L64.8906 187H59.8281ZM83.7188 163.859C85.9062 163.859 87.6667 164.359 89 165.359C90.3438 166.349 91.0156 167.687 91.0156 169.375C91.0156 170.542 90.6927 171.583 90.0469 172.5C89.401 173.406 88.3594 174.219 86.9219 174.937C88.6302 175.854 89.8542 176.812 90.5938 177.812C91.3438 178.802 91.7188 179.891 91.7188 181.078C91.7188 182.953 90.9844 184.463 89.5156 185.609C88.0469 186.745 86.1146 187.312 83.7188 187.312C81.2188 187.312 79.2552 186.781 77.8281 185.719C76.401 184.656 75.6875 183.151 75.6875 181.203C75.6875 179.901 76.0312 178.745 76.7188 177.734C77.4167 176.724 78.5312 175.833 80.0625 175.062C78.7604 174.239 77.8229 173.359 77.25 172.422C76.6771 171.484 76.3906 170.458 76.3906 169.344C76.3906 167.708 77.0677 166.385 78.4219 165.375C79.776 164.364 81.5417 163.859 83.7188 163.859ZM80.1562 180.922C80.1562 181.818 80.4688 182.516 81.0938 183.016C81.7188 183.516 82.5729 183.766 83.6562 183.766C84.8542 183.766 85.75 183.51 86.3438 183C86.9375 182.479 87.2344 181.797 87.2344 180.953C87.2344 180.255 86.9375 179.604 86.3438 179C85.7604 178.385 84.8073 177.734 83.4844 177.047C81.2656 178.068 80.1562 179.359 80.1562 180.922ZM83.6875 167.391C82.8646 167.391 82.1979 167.604 81.6875 168.031C81.1875 168.448 80.9375 169.01 80.9375 169.719C80.9375 170.344 81.1354 170.906 81.5312 171.406C81.9375 171.896 82.6667 172.401 83.7188 172.922C84.7396 172.443 85.4531 171.953 85.8594 171.453C86.2656 170.953 86.4688 170.375 86.4688 169.719C86.4688 169 86.2083 168.432 85.6875 168.016C85.1667 167.599 84.5 167.391 83.6875 167.391ZM100.016 183.641C99.474 185.745 98.5573 188.239 97.2656 191.125H93.8281C94.5052 188.354 95.0312 185.739 95.4062 183.281H99.7812L100.016 183.641ZM118.484 169.266C118.484 170.693 118.052 171.906 117.188 172.906C116.323 173.906 115.109 174.594 113.547 174.969V175.062C115.391 175.292 116.786 175.854 117.734 176.75C118.682 177.635 119.156 178.833 119.156 180.344C119.156 182.542 118.359 184.255 116.766 185.484C115.172 186.703 112.896 187.312 109.938 187.312C107.458 187.312 105.26 186.901 103.344 186.078V181.969C104.229 182.417 105.203 182.781 106.266 183.062C107.328 183.344 108.38 183.484 109.422 183.484C111.016 183.484 112.193 183.213 112.953 182.672C113.714 182.13 114.094 181.26 114.094 180.062C114.094 178.989 113.656 178.229 112.781 177.781C111.906 177.333 110.51 177.109 108.594 177.109H106.859V173.406H108.625C110.396 173.406 111.688 173.177 112.5 172.719C113.323 172.25 113.734 171.453 113.734 170.328C113.734 168.599 112.651 167.734 110.484 167.734C109.734 167.734 108.969 167.859 108.188 168.109C107.417 168.359 106.557 168.792 105.609 169.406L103.375 166.078C105.458 164.578 107.943 163.828 110.828 163.828C113.193 163.828 115.057 164.307 116.422 165.266C117.797 166.224 118.484 167.557 118.484 169.266ZM130 172.406C132.208 172.406 133.964 173.026 135.266 174.266C136.578 175.505 137.234 177.203 137.234 179.359C137.234 181.911 136.448 183.875 134.875 185.25C133.302 186.625 131.052 187.312 128.125 187.312C125.583 187.312 123.531 186.901 121.969 186.078V181.906C122.792 182.344 123.75 182.703 124.844 182.984C125.938 183.255 126.974 183.391 127.953 183.391C130.901 183.391 132.375 182.182 132.375 179.766C132.375 177.463 130.849 176.312 127.797 176.312C127.245 176.312 126.635 176.37 125.969 176.484C125.302 176.588 124.76 176.703 124.344 176.828L122.422 175.797L123.281 164.156H135.672V168.25H127.516L127.094 172.734L127.641 172.625C128.276 172.479 129.062 172.406 130 172.406ZM148.281 172.406C150.49 172.406 152.245 173.026 153.547 174.266C154.859 175.505 155.516 177.203 155.516 179.359C155.516 181.911 154.729 183.875 153.156 185.25C151.583 186.625 149.333 187.312 146.406 187.312C143.865 187.312 141.812 186.901 140.25 186.078V181.906C141.073 182.344 142.031 182.703 143.125 182.984C144.219 183.255 145.255 183.391 146.234 183.391C149.182 183.391 150.656 182.182 150.656 179.766C150.656 177.463 149.13 176.312 146.078 176.312C145.526 176.312 144.917 176.37 144.25 176.484C143.583 176.588 143.042 176.703 142.625 176.828L140.703 175.797L141.562 164.156H153.953V168.25H145.797L145.375 172.734L145.922 172.625C146.557 172.479 147.344 172.406 148.281 172.406ZM158.797 184.766C158.797 183.891 159.031 183.229 159.5 182.781C159.969 182.333 160.651 182.109 161.547 182.109C162.411 182.109 163.078 182.338 163.547 182.797C164.026 183.255 164.266 183.911 164.266 184.766C164.266 185.588 164.026 186.239 163.547 186.719C163.068 187.187 162.401 187.422 161.547 187.422C160.672 187.422 159.995 187.193 159.516 186.734C159.036 186.266 158.797 185.609 158.797 184.766ZM179.312 187H174.484V173.781L174.531 171.609L174.609 169.234C173.807 170.036 173.25 170.562 172.938 170.812L170.312 172.922L167.984 170.016L175.344 164.156H179.312V187ZM187.922 187L196.5 168.25H185.234V164.187H201.625V167.219L192.984 187H187.922Z" fill="white"/>
<path d="M47.9375 136L42.125 120.812H42.0312C42.1406 122.016 42.1953 123.445 42.1953 125.101V136H40.3555V118.867H43.3555L48.7812 133H48.875L54.3477 118.867H57.3242V136H55.332V124.961C55.332 123.695 55.3867 122.32 55.4961 120.836H55.4023L49.543 136H47.9375ZM69.6406 136L69.2539 134.172H69.1602C68.5195 134.976 67.8789 135.523 67.2383 135.812C66.6055 136.094 65.8125 136.234 64.8594 136.234C63.5859 136.234 62.5859 135.906 61.8594 135.25C61.1406 134.594 60.7812 133.66 60.7812 132.449C60.7812 129.855 62.8555 128.496 67.0039 128.371L69.1836 128.301V127.504C69.1836 126.496 68.9648 125.754 68.5273 125.277C68.0977 124.793 67.4062 124.551 66.4531 124.551C65.3828 124.551 64.1719 124.879 62.8203 125.535L62.2227 124.047C62.8555 123.703 63.5469 123.433 64.2969 123.238C65.0547 123.043 65.8125 122.945 66.5703 122.945C68.1016 122.945 69.2344 123.285 69.9688 123.965C70.7109 124.644 71.082 125.734 71.082 127.234V136H69.6406ZM65.2461 134.629C66.457 134.629 67.4062 134.297 68.0938 133.633C68.7891 132.969 69.1367 132.039 69.1367 130.844V129.683L67.1914 129.766C65.6445 129.82 64.5273 130.062 63.8398 130.492C63.1602 130.914 62.8203 131.574 62.8203 132.473C62.8203 133.176 63.0312 133.711 63.4531 134.078C63.8828 134.445 64.4805 134.629 65.2461 134.629ZM77.0469 136H75.1016V123.156H77.0469V136ZM74.9375 119.676C74.9375 119.23 75.0469 118.906 75.2656 118.703C75.4844 118.492 75.7578 118.387 76.0859 118.387C76.3984 118.387 76.668 118.492 76.8945 118.703C77.1211 118.914 77.2344 119.238 77.2344 119.676C77.2344 120.113 77.1211 120.441 76.8945 120.66C76.668 120.871 76.3984 120.976 76.0859 120.976C75.7578 120.976 75.4844 120.871 75.2656 120.66C75.0469 120.441 74.9375 120.113 74.9375 119.676ZM89.9609 136V127.691C89.9609 126.644 89.7227 125.863 89.2461 125.348C88.7695 124.832 88.0234 124.574 87.0078 124.574C85.6641 124.574 84.6797 124.937 84.0547 125.664C83.4297 126.391 83.1172 127.59 83.1172 129.262V136H81.1719V123.156H82.7539L83.0703 124.914H83.1641C83.5625 124.281 84.1211 123.793 84.8398 123.449C85.5586 123.098 86.3594 122.922 87.2422 122.922C88.7891 122.922 89.9531 123.297 90.7344 124.047C91.5156 124.789 91.9062 125.98 91.9062 127.621V136H89.9609ZM102.441 118.867H107.281C109.555 118.867 111.199 119.207 112.215 119.887C113.23 120.566 113.738 121.641 113.738 123.109C113.738 124.125 113.453 124.965 112.883 125.629C112.32 126.285 111.496 126.711 110.41 126.906V127.023C113.012 127.469 114.312 128.836 114.312 131.125C114.312 132.656 113.793 133.851 112.754 134.711C111.723 135.57 110.277 136 108.418 136H102.441V118.867ZM104.434 126.203H107.715C109.121 126.203 110.133 125.984 110.75 125.547C111.367 125.101 111.676 124.355 111.676 123.308C111.676 122.348 111.332 121.656 110.645 121.234C109.957 120.805 108.863 120.59 107.363 120.59H104.434V126.203ZM104.434 127.891V134.301H108.008C109.391 134.301 110.43 134.035 111.125 133.504C111.828 132.965 112.18 132.125 112.18 130.984C112.18 129.922 111.82 129.141 111.102 128.641C110.391 128.141 109.305 127.891 107.844 127.891H104.434ZM125.609 136L125.223 134.172H125.129C124.488 134.976 123.848 135.523 123.207 135.812C122.574 136.094 121.781 136.234 120.828 136.234C119.555 136.234 118.555 135.906 117.828 135.25C117.109 134.594 116.75 133.66 116.75 132.449C116.75 129.855 118.824 128.496 122.973 128.371L125.152 128.301V127.504C125.152 126.496 124.934 125.754 124.496 125.277C124.066 124.793 123.375 124.551 122.422 124.551C121.352 124.551 120.141 124.879 118.789 125.535L118.191 124.047C118.824 123.703 119.516 123.433 120.266 123.238C121.023 123.043 121.781 122.945 122.539 122.945C124.07 122.945 125.203 123.285 125.938 123.965C126.68 124.644 127.051 125.734 127.051 127.234V136H125.609ZM121.215 134.629C122.426 134.629 123.375 134.297 124.062 133.633C124.758 132.969 125.105 132.039 125.105 130.844V129.683L123.16 129.766C121.613 129.82 120.496 130.062 119.809 130.492C119.129 130.914 118.789 131.574 118.789 132.473C118.789 133.176 119 133.711 119.422 134.078C119.852 134.445 120.449 134.629 121.215 134.629ZM133.016 136H131.07V117.766H133.016V136ZM145.039 136L144.652 134.172H144.559C143.918 134.976 143.277 135.523 142.637 135.812C142.004 136.094 141.211 136.234 140.258 136.234C138.984 136.234 137.984 135.906 137.258 135.25C136.539 134.594 136.18 133.66 136.18 132.449C136.18 129.855 138.254 128.496 142.402 128.371L144.582 128.301V127.504C144.582 126.496 144.363 125.754 143.926 125.277C143.496 124.793 142.805 124.551 141.852 124.551C140.781 124.551 139.57 124.879 138.219 125.535L137.621 124.047C138.254 123.703 138.945 123.433 139.695 123.238C140.453 123.043 141.211 122.945 141.969 122.945C143.5 122.945 144.633 123.285 145.367 123.965C146.109 124.644 146.48 125.734 146.48 127.234V136H145.039ZM140.645 134.629C141.855 134.629 142.805 134.297 143.492 133.633C144.188 132.969 144.535 132.039 144.535 130.844V129.683L142.59 129.766C141.043 129.82 139.926 130.062 139.238 130.492C138.559 130.914 138.219 131.574 138.219 132.473C138.219 133.176 138.43 133.711 138.852 134.078C139.281 134.445 139.879 134.629 140.645 134.629ZM159.289 136V127.691C159.289 126.644 159.051 125.863 158.574 125.348C158.098 124.832 157.352 124.574 156.336 124.574C154.992 124.574 154.008 124.937 153.383 125.664C152.758 126.391 152.445 127.59 152.445 129.262V136H150.5V123.156H152.082L152.398 124.914H152.492C152.891 124.281 153.449 123.793 154.168 123.449C154.887 123.098 155.688 122.922 156.57 122.922C158.117 122.922 159.281 123.297 160.062 124.047C160.844 124.789 161.234 125.98 161.234 127.621V136H159.289ZM170.375 136.234C168.516 136.234 167.074 135.664 166.051 134.523C165.035 133.375 164.527 131.754 164.527 129.66C164.527 127.512 165.043 125.851 166.074 124.68C167.113 123.508 168.59 122.922 170.504 122.922C171.121 122.922 171.738 122.988 172.355 123.121C172.973 123.254 173.457 123.41 173.809 123.59L173.211 125.242C172.781 125.07 172.312 124.93 171.805 124.82C171.297 124.703 170.848 124.644 170.457 124.644C167.848 124.644 166.543 126.308 166.543 129.637C166.543 131.215 166.859 132.426 167.492 133.269C168.133 134.113 169.078 134.535 170.328 134.535C171.398 134.535 172.496 134.305 173.621 133.844V135.566C172.762 136.012 171.68 136.234 170.375 136.234ZM182.105 136.234C180.207 136.234 178.707 135.656 177.605 134.5C176.512 133.344 175.965 131.738 175.965 129.683C175.965 127.613 176.473 125.969 177.488 124.75C178.512 123.531 179.883 122.922 181.602 122.922C183.211 122.922 184.484 123.453 185.422 124.516C186.359 125.57 186.828 126.965 186.828 128.699V129.93H177.98C178.02 131.437 178.398 132.582 179.117 133.363C179.844 134.144 180.863 134.535 182.176 134.535C183.559 134.535 184.926 134.246 186.277 133.668V135.402C185.59 135.699 184.938 135.91 184.32 136.035C183.711 136.168 182.973 136.234 182.105 136.234ZM181.578 124.551C180.547 124.551 179.723 124.887 179.105 125.558C178.496 126.23 178.137 127.16 178.027 128.348H184.742C184.742 127.121 184.469 126.183 183.922 125.535C183.375 124.879 182.594 124.551 181.578 124.551Z" fill="white"/>
<circle cx="388" cy="134" r="24" fill="#FE6565"/>
<circle cx="420" cy="134" r="24" fill="#FEEF65"/>
<path d="M406 114.504C399.944 118.86 396 125.969 396 134C396 142.03 399.944 149.139 406 153.495C422 136.292 412.667 120.333 406 114.504Z" fill="#FFB228"/>
<g filter="url(#filter0_d_2_229)">
<rect x="294" y="24" width="276" height="86" rx="12" fill="white"/>
</g>
<path d="M366.719 56.5653H367.989C367.95 55.1676 366.714 54.1534 364.942 54.1534C363.19 54.1534 361.848 55.1548 361.848 56.6591C361.848 57.8736 362.717 58.5852 364.119 58.9645L365.151 59.2457C366.084 59.4929 366.804 59.7997 366.804 60.5753C366.804 61.4276 365.99 61.9901 364.869 61.9901C363.855 61.9901 363.011 61.5384 362.935 60.5881H361.614C361.699 62.169 362.922 63.1449 364.878 63.1449C366.928 63.1449 368.108 62.0668 368.108 60.5881C368.108 59.0156 366.706 58.4062 365.598 58.1335L364.746 57.9119C364.064 57.7372 363.156 57.4176 363.161 56.5824C363.161 55.8409 363.838 55.2912 364.912 55.2912C365.913 55.2912 366.625 55.7599 366.719 56.5653ZM372.4 63.1321C373.828 63.1321 374.838 62.429 375.127 61.3636L373.922 61.1463C373.691 61.7642 373.137 62.0795 372.413 62.0795C371.322 62.0795 370.589 61.3722 370.555 60.1108H375.208V59.6591C375.208 57.294 373.794 56.3693 372.311 56.3693C370.487 56.3693 369.285 57.7585 369.285 59.7699C369.285 61.8026 370.47 63.1321 372.4 63.1321ZM370.559 59.1562C370.61 58.2273 371.284 57.4219 372.319 57.4219C373.308 57.4219 373.956 58.1548 373.96 59.1562H370.559ZM377.896 59.1136C377.896 58.0696 378.536 57.473 379.422 57.473C380.287 57.473 380.811 58.0398 380.811 58.9901V63H382.085V58.8366C382.085 57.2173 381.195 56.3693 379.857 56.3693C378.872 56.3693 378.229 56.8253 377.926 57.5199H377.845V56.4545H376.622V63H377.896V59.1136ZM386.244 63.1278C387.438 63.1278 387.906 62.3991 388.136 61.9815H388.243V63H389.487V54.2727H388.213V57.5156H388.136C387.906 57.1108 387.472 56.3693 386.253 56.3693C384.672 56.3693 383.509 57.6179 383.509 59.7401C383.509 61.858 384.655 63.1278 386.244 63.1278ZM386.526 62.0412C385.388 62.0412 384.795 61.0398 384.795 59.7273C384.795 58.4276 385.375 57.4517 386.526 57.4517C387.638 57.4517 388.234 58.3594 388.234 59.7273C388.234 61.1037 387.625 62.0412 386.526 62.0412ZM394.584 54.2727V63H395.837V56.6804H395.918L398.491 62.9872H399.531L402.105 56.6847H402.186V63H403.439V54.2727H401.841L399.062 61.0568H398.96L396.182 54.2727H394.584ZM408.008 63.1321C409.853 63.1321 411.059 61.7812 411.059 59.7571C411.059 57.7202 409.853 56.3693 408.008 56.3693C406.163 56.3693 404.957 57.7202 404.957 59.7571C404.957 61.7812 406.163 63.1321 408.008 63.1321ZM408.012 62.0625C406.806 62.0625 406.244 61.0099 406.244 59.7528C406.244 58.5 406.806 57.4347 408.012 57.4347C409.21 57.4347 409.772 58.5 409.772 59.7528C409.772 61.0099 409.21 62.0625 408.012 62.0625ZM413.756 59.1136C413.756 58.0696 414.395 57.473 415.281 57.473C416.146 57.473 416.67 58.0398 416.67 58.9901V63H417.945V58.8366C417.945 57.2173 417.054 56.3693 415.716 56.3693C414.732 56.3693 414.088 56.8253 413.786 57.5199H413.705V56.4545H412.482V63H413.756V59.1136ZM422.474 63.1321C423.902 63.1321 424.912 62.429 425.202 61.3636L423.996 61.1463C423.766 61.7642 423.212 62.0795 422.487 62.0795C421.396 62.0795 420.663 61.3722 420.629 60.1108H425.283V59.6591C425.283 57.294 423.868 56.3693 422.385 56.3693C420.561 56.3693 419.359 57.7585 419.359 59.7699C419.359 61.8026 420.544 63.1321 422.474 63.1321ZM420.634 59.1562C420.685 58.2273 421.358 57.4219 422.393 57.4219C423.382 57.4219 424.03 58.1548 424.034 59.1562H420.634ZM427.303 65.4545C428.355 65.4545 429.02 64.9048 429.399 63.8736L432.105 56.4673L430.729 56.4545L429.071 61.5341H429.003L427.345 56.4545H425.982L428.376 63.0852L428.219 63.5199C427.895 64.3892 427.439 64.4616 426.74 64.2699L426.433 65.3139C426.587 65.3821 426.919 65.4545 427.303 65.4545Z" fill="#212832"/>
<path d="M362.179 80L362.911 77.9403H365.851L366.582 80H367.506L364.835 72.7273H363.926L361.256 80H362.179ZM363.188 77.1591L364.352 73.8778H364.409L365.574 77.1591H363.188ZM368.583 80H369.422V74.5455H368.583V80ZM369.01 73.6364C369.336 73.6364 369.606 73.3807 369.606 73.0682C369.606 72.7557 369.336 72.5 369.01 72.5C368.683 72.5 368.413 72.7557 368.413 73.0682C368.413 73.3807 368.683 73.6364 369.01 73.6364ZM370.956 80H371.795V76.5483C371.795 75.8097 372.377 75.2699 373.172 75.2699C373.396 75.2699 373.627 75.3125 373.684 75.3267V74.4744C373.588 74.4673 373.368 74.4602 373.243 74.4602C372.59 74.4602 372.022 74.8295 371.823 75.3693H371.766V74.5455H370.956V80ZM374.791 80H375.6V79.1619H375.7C375.885 79.4602 376.24 80.1136 377.291 80.1136C378.654 80.1136 379.606 79.0199 379.606 77.2869C379.606 75.5682 378.654 74.4744 377.277 74.4744C376.211 74.4744 375.885 75.1278 375.7 75.4119H375.629V72.7273H374.791V80ZM375.615 77.2727C375.615 76.0511 376.154 75.2273 377.177 75.2273C378.243 75.2273 378.768 76.1222 378.768 77.2727C378.768 78.4375 378.228 79.3608 377.177 79.3608C376.169 79.3608 375.615 78.5085 375.615 77.2727ZM381.726 76.7188C381.726 75.767 382.316 75.2273 383.118 75.2273C383.896 75.2273 384.368 75.7351 384.368 76.5909V80H385.206V76.5341C385.206 75.142 384.464 74.4744 383.36 74.4744C382.536 74.4744 382.025 74.8438 381.769 75.3977H381.698V74.5455H380.888V80H381.726V76.7188ZM386.851 80H387.661V79.1619H387.76C387.945 79.4602 388.3 80.1136 389.351 80.1136C390.715 80.1136 391.667 79.0199 391.667 77.2869C391.667 75.5682 390.715 74.4744 389.337 74.4744C388.272 74.4744 387.945 75.1278 387.76 75.4119H387.689V72.7273H386.851V80ZM387.675 77.2727C387.675 76.0511 388.215 75.2273 389.238 75.2273C390.303 75.2273 390.829 76.1222 390.829 77.2727C390.829 78.4375 390.289 79.3608 389.238 79.3608C388.229 79.3608 387.675 78.5085 387.675 77.2727ZM395.875 80H396.756V77.3438H398.346C400.04 77.3438 400.804 76.3139 400.804 75.0284C400.804 73.7429 400.04 72.7273 398.332 72.7273H395.875V80ZM396.756 76.5625V73.5085H398.304C399.486 73.5085 399.937 74.1548 399.937 75.0284C399.937 75.902 399.486 76.5625 398.318 76.5625H396.756ZM403.714 80.1278C404.666 80.1278 405.163 79.6165 405.333 79.2614H405.376V80H406.214V76.4062C406.214 74.6733 404.893 74.4744 404.197 74.4744C403.373 74.4744 402.436 74.7585 402.009 75.7528L402.805 76.0369C402.99 75.6392 403.426 75.2131 404.225 75.2131C404.996 75.2131 405.376 75.6214 405.376 76.321V76.3494C405.376 76.7543 404.964 76.7188 403.97 76.8466C402.958 76.978 401.853 77.2017 401.853 78.4517C401.853 79.517 402.677 80.1278 403.714 80.1278ZM403.842 79.375C403.174 79.375 402.691 79.0767 402.691 78.4943C402.691 77.8551 403.274 77.6562 403.927 77.571C404.282 77.5284 405.234 77.429 405.376 77.2585V78.0256C405.376 78.7074 404.836 79.375 403.842 79.375ZM408.088 82.0455C408.844 82.0455 409.377 81.6442 409.693 80.7955L412.016 74.5597L411.099 74.5455L409.594 78.892H409.537L408.031 74.5455H407.122L409.139 80.0284L408.983 80.4545C408.678 81.2855 408.301 81.3636 407.69 81.2074L407.477 81.946C407.562 81.9886 407.804 82.0455 408.088 82.0455ZM413.124 80H413.963V76.5909C413.963 75.7919 414.545 75.2273 415.198 75.2273C415.834 75.2273 416.278 75.6428 416.278 76.2642V80H417.13V76.4489C417.13 75.7457 417.57 75.2273 418.338 75.2273C418.934 75.2273 419.445 75.5433 419.445 76.3494V80H420.284V76.3494C420.284 75.0675 419.595 74.4744 418.622 74.4744C417.84 74.4744 417.269 74.8331 416.988 75.3977H416.931C416.661 74.8153 416.186 74.4744 415.468 74.4744C414.758 74.4744 414.232 74.8153 414.005 75.3977H413.934V74.5455H413.124V80ZM424.103 80.1136C425.211 80.1136 426.02 79.5597 426.276 78.7358L425.466 78.5085C425.253 79.0767 424.76 79.3608 424.103 79.3608C423.119 79.3608 422.441 78.7251 422.402 77.5568H426.361V77.2017C426.361 75.1705 425.154 74.4744 424.018 74.4744C422.54 74.4744 421.56 75.6392 421.56 77.3153C421.56 78.9915 422.526 80.1136 424.103 80.1136ZM422.402 76.8324C422.459 75.9837 423.059 75.2273 424.018 75.2273C424.927 75.2273 425.509 75.9091 425.509 76.8324H422.402ZM428.474 76.7188C428.474 75.767 429.064 75.2273 429.866 75.2273C430.644 75.2273 431.116 75.7351 431.116 76.5909V80H431.954V76.5341C431.954 75.142 431.212 74.4744 430.108 74.4744C429.284 74.4744 428.773 74.8438 428.517 75.3977H428.446V74.5455H427.636V80H428.474V76.7188ZM435.858 74.5455H434.693V73.2386H433.855V74.5455H433.031V75.2557H433.855V78.6648C433.855 79.6165 434.622 80.071 435.332 80.071C435.645 80.071 435.844 80.0142 435.957 79.9716L435.787 79.2188C435.716 79.233 435.602 79.2614 435.418 79.2614C435.048 79.2614 434.693 79.1477 434.693 78.4375V75.2557H435.858V74.5455Z" fill="#696D76"/>
<path d="M511.18 58.5568H506.089V59.8068H511.18V58.5568ZM521.449 66.4545H522.381V65.1875C524.767 65.0227 526.108 63.6136 526.108 61.8409C526.108 59.6591 524.04 58.9545 522.835 58.6364L522.381 58.5114V54.4716C523.585 54.5909 524.46 55.2386 524.585 56.2727H525.949C525.892 54.6136 524.438 53.3523 522.381 53.2159V51.9091H521.449V53.233C519.5 53.4318 518.04 54.6705 518.04 56.4545C518.04 58.0227 519.176 58.9545 520.994 59.4773L521.449 59.608V63.9091C520.256 63.7841 519.278 63.1705 519.176 62H517.722C517.852 63.7898 519.216 65.0398 521.449 65.1875V66.4545ZM522.381 63.9091V59.875L522.426 59.8864C523.653 60.2273 524.744 60.6591 524.744 61.8182C524.744 62.9602 523.756 63.7557 522.381 63.9091ZM521.449 58.2614C520.585 58.017 519.403 57.5398 519.403 56.3864C519.403 55.4034 520.199 54.6534 521.449 54.4886V58.2614ZM532.084 65.1591C534.436 65.1875 535.97 63.4148 535.97 61.25C535.97 59 534.305 57.3864 532.311 57.3864C531.112 57.3864 530.084 57.9716 529.447 58.9318H529.357C529.362 56.0966 530.464 54.4545 532.266 54.4545C533.493 54.4545 534.232 55.2273 534.493 56.2727H535.879C535.595 54.4659 534.22 53.2045 532.266 53.2045C529.646 53.2045 528.038 55.5227 528.038 59.6364C528.038 63.9375 530.175 65.1364 532.084 65.1591ZM532.084 63.9091C530.624 63.9091 529.555 62.6648 529.561 61.2727C529.567 59.8807 530.686 58.6364 532.129 58.6364C533.555 58.6364 534.607 59.8068 534.607 61.25C534.607 62.7273 533.51 63.9091 532.084 63.9091ZM542 65.1591C544.568 65.1591 546.045 62.983 546.045 59.1818C546.045 55.4091 544.545 53.2045 542 53.2045C539.455 53.2045 537.955 55.4091 537.955 59.1818C537.955 62.983 539.432 65.1591 542 65.1591ZM542 63.9091C540.307 63.9091 539.318 62.2102 539.318 59.1818C539.318 56.1591 540.318 54.4318 542 54.4318C543.682 54.4318 544.682 56.1591 544.682 59.1818C544.682 62.2102 543.693 63.9091 542 63.9091ZM552 65.1591C554.568 65.1591 556.045 62.983 556.045 59.1818C556.045 55.4091 554.545 53.2045 552 53.2045C549.455 53.2045 547.955 55.4091 547.955 59.1818C547.955 62.983 549.432 65.1591 552 65.1591ZM552 63.9091C550.307 63.9091 549.318 62.2102 549.318 59.1818C549.318 56.1591 550.318 54.4318 552 54.4318C553.682 54.4318 554.682 56.1591 554.682 59.1818C554.682 62.2102 553.693 63.9091 552 63.9091Z" fill="#212832"/>
<path d="M528.333 76.5455H529.185C529.146 75.4482 528.134 74.6278 526.727 74.6278C525.335 74.6278 524.242 75.4375 524.242 76.6591C524.242 77.6392 524.952 78.2216 526.088 78.5483L526.983 78.804C527.75 79.017 528.432 79.2869 528.432 80.0114C528.432 80.8068 527.665 81.3324 526.656 81.3324C525.79 81.3324 525.023 80.9489 524.952 80.125H524.043C524.128 81.3182 525.094 82.1278 526.656 82.1278C528.333 82.1278 529.284 81.2045 529.284 80.0256C529.284 78.6619 527.992 78.2216 527.239 78.0227L526.5 77.8239C525.96 77.6818 525.094 77.3977 525.094 76.6165C525.094 75.9205 525.733 75.4091 526.699 75.4091C527.58 75.4091 528.247 75.8281 528.333 76.5455ZM532.906 82.1136C534.013 82.1136 534.823 81.5597 535.079 80.7358L534.269 80.5085C534.056 81.0767 533.562 81.3608 532.906 81.3608C531.922 81.3608 531.244 80.7251 531.205 79.5568H535.164V79.2017C535.164 77.1705 533.957 76.4744 532.82 76.4744C531.343 76.4744 530.363 77.6392 530.363 79.3153C530.363 80.9915 531.329 82.1136 532.906 82.1136ZM531.205 78.8324C531.261 77.9837 531.862 77.2273 532.82 77.2273C533.729 77.2273 534.312 77.9091 534.312 78.8324H531.205ZM536.439 84.0455H537.277V81.1619H537.348C537.533 81.4602 537.888 82.1136 538.939 82.1136C540.303 82.1136 541.254 81.0199 541.254 79.2869C541.254 77.5682 540.303 76.4744 538.925 76.4744C537.859 76.4744 537.533 77.1278 537.348 77.4119H537.249V76.5455H536.439V84.0455ZM537.263 79.2727C537.263 78.0511 537.803 77.2273 538.825 77.2273C539.891 77.2273 540.416 78.1222 540.416 79.2727C540.416 80.4375 539.876 81.3608 538.825 81.3608C537.817 81.3608 537.263 80.5085 537.263 79.2727ZM545.331 82H549.919V81.2188H546.538V81.1619L548.172 79.4148C549.422 78.076 549.791 77.451 549.791 76.6449C549.791 75.5227 548.882 74.6278 547.604 74.6278C546.329 74.6278 545.359 75.4943 545.359 76.7727H546.197C546.197 75.9453 546.734 75.3949 547.575 75.3949C548.364 75.3949 548.967 75.8778 548.967 76.6449C548.967 77.3161 548.573 77.8132 547.732 78.733L545.331 81.3608V82ZM553.843 82.0994C555.253 82.0994 556.3 81.2152 556.3 80.0256C556.3 79.1023 555.754 78.4311 554.837 78.2784V78.2216C555.572 77.9979 556.031 77.3942 556.031 76.5739C556.031 75.544 555.217 74.6278 553.871 74.6278C552.614 74.6278 551.57 75.402 551.528 76.5455H552.38C552.412 75.821 553.101 75.3949 553.857 75.3949C554.66 75.3949 555.178 75.8814 555.178 76.6165C555.178 77.3835 554.578 77.8807 553.715 77.8807H553.133V78.6619H553.715C554.82 78.6619 555.434 79.223 555.434 80.0256C555.434 80.7962 554.763 81.3182 553.829 81.3182C552.987 81.3182 552.32 80.8849 552.266 80.1818H551.371C551.425 81.3253 552.433 82.0994 553.843 82.0994Z" fill="#696D76"/>
<g opacity="0.1" filter="url(#filter1_dd_2_229)">
<rect x="307" y="47" width="40" height="40" rx="8" fill="#DA6464"/>
</g>
<path d="M324.291 71.6757V75.5404C324.291 75.8104 324.465 76.0495 324.721 76.1345C324.786 76.1553 324.851 76.1653 324.916 76.1653C325.111 76.1653 325.3 76.0737 325.42 75.9104L327.68 72.8339L324.291 71.6757Z" fill="#DA6464"/>
<path d="M336.736 57.1159C336.544 56.9801 336.293 56.9617 336.084 57.0709L317.336 66.8619C317.114 66.9777 316.983 67.2143 317.002 67.4635C317.021 67.7135 317.187 67.9268 317.423 68.0076L322.635 69.7892L333.735 60.2982L325.145 70.6466L333.88 73.6322C333.945 73.6539 334.014 73.6655 334.082 73.6655C334.195 73.6655 334.308 73.6347 334.407 73.5747C334.565 73.4781 334.673 73.3156 334.7 73.1331L336.992 57.7175C337.026 57.4842 336.928 57.2526 336.736 57.1159Z" fill="#DA6464"/>
<rect x="450" y="329" width="120" height="120" rx="16" fill="#439F90"/>
<path d="M474.343 424.019C474.343 424.868 474.032 425.568 473.411 426.119C472.79 426.67 471.894 427.01 470.722 427.139V429.046H469.553V427.191C468.1 427.168 466.907 426.945 465.976 426.523V424.669C466.479 424.915 467.068 425.123 467.742 425.293C468.416 425.457 469.02 425.542 469.553 425.548V422.261L468.814 421.988C467.854 421.619 467.15 421.18 466.705 420.67C466.266 420.154 466.046 419.519 466.046 418.763C466.046 417.954 466.359 417.289 466.986 416.768C467.619 416.246 468.475 415.93 469.553 415.818V414.342H470.722V415.792C471.911 415.833 473.039 416.073 474.105 416.513L473.464 418.121C472.544 417.758 471.63 417.541 470.722 417.471V420.67L471.39 420.925C472.503 421.353 473.273 421.804 473.701 422.278C474.129 422.753 474.343 423.333 474.343 424.019ZM472.269 424.15C472.269 423.811 472.148 423.532 471.908 423.315C471.674 423.093 471.278 422.879 470.722 422.674V425.478C471.753 425.319 472.269 424.877 472.269 424.15ZM468.111 418.745C468.111 419.079 468.214 419.357 468.419 419.58C468.63 419.803 469.008 420.022 469.553 420.239V417.506C469.084 417.576 468.727 417.72 468.48 417.937C468.234 418.153 468.111 418.423 468.111 418.745ZM482.139 428H480.073V419.703C480.073 418.713 480.097 417.928 480.144 417.348C480.009 417.488 479.842 417.644 479.643 417.813C479.449 417.983 478.793 418.522 477.674 419.431L476.637 418.121L480.416 415.15H482.139V428ZM495.067 428H486.357V426.436L489.671 423.104C490.649 422.103 491.297 421.394 491.613 420.978C491.936 420.556 492.17 420.16 492.316 419.791C492.463 419.422 492.536 419.026 492.536 418.604C492.536 418.024 492.36 417.567 492.009 417.233C491.663 416.899 491.183 416.732 490.567 416.732C490.075 416.732 489.598 416.823 489.135 417.005C488.678 417.187 488.147 417.515 487.544 417.989L486.428 416.627C487.143 416.023 487.837 415.596 488.511 415.344C489.185 415.092 489.902 414.966 490.664 414.966C491.859 414.966 492.817 415.279 493.538 415.906C494.259 416.527 494.619 417.365 494.619 418.42C494.619 419 494.514 419.551 494.303 420.072C494.098 420.594 493.778 421.133 493.345 421.689C492.917 422.24 492.202 422.987 491.2 423.931L488.968 426.093V426.181H495.067V428ZM501 419.976C502.295 419.976 503.32 420.318 504.076 421.004C504.832 421.689 505.21 422.624 505.21 423.808C505.21 425.179 504.779 426.251 503.918 427.024C503.062 427.792 501.844 428.176 500.262 428.176C498.826 428.176 497.698 427.944 496.878 427.481V425.609C497.353 425.879 497.897 426.087 498.513 426.233C499.128 426.38 499.699 426.453 500.227 426.453C501.158 426.453 501.867 426.245 502.354 425.829C502.84 425.413 503.083 424.804 503.083 424.001C503.083 422.466 502.104 421.698 500.147 421.698C499.872 421.698 499.532 421.728 499.128 421.786C498.724 421.839 498.369 421.9 498.064 421.971L497.142 421.426L497.634 415.15H504.313V416.987H499.453L499.163 420.169C499.368 420.134 499.617 420.093 499.91 420.046C500.209 419.999 500.572 419.976 501 419.976ZM515.634 421.575C515.634 423.808 515.273 425.466 514.553 426.55C513.838 427.634 512.742 428.176 511.266 428.176C509.836 428.176 508.752 427.616 508.014 426.497C507.275 425.378 506.906 423.737 506.906 421.575C506.906 419.308 507.264 417.638 507.979 416.565C508.699 415.487 509.795 414.948 511.266 414.948C512.701 414.948 513.788 415.511 514.526 416.636C515.265 417.761 515.634 419.407 515.634 421.575ZM508.998 421.575C508.998 423.327 509.177 424.578 509.534 425.328C509.897 426.078 510.475 426.453 511.266 426.453C512.057 426.453 512.634 426.072 512.997 425.311C513.366 424.549 513.551 423.304 513.551 421.575C513.551 419.853 513.366 418.607 512.997 417.84C512.634 417.066 512.057 416.68 511.266 416.68C510.475 416.68 509.897 417.058 509.534 417.813C509.177 418.569 508.998 419.823 508.998 421.575Z" fill="white"/>
<path d="M466.178 400V391.434H467.174V400H466.178ZM473.777 400V395.846C473.777 395.322 473.658 394.932 473.42 394.674C473.182 394.416 472.809 394.287 472.301 394.287C471.629 394.287 471.137 394.469 470.824 394.832C470.512 395.195 470.355 395.795 470.355 396.631V400H469.383V393.578H470.174L470.332 394.457H470.379C470.578 394.141 470.857 393.896 471.217 393.725C471.576 393.549 471.977 393.461 472.418 393.461C473.191 393.461 473.773 393.648 474.164 394.023C474.555 394.395 474.75 394.99 474.75 395.811V400H473.777ZM479.32 400.117C478.391 400.117 477.67 399.832 477.158 399.262C476.65 398.688 476.396 397.877 476.396 396.83C476.396 395.756 476.654 394.926 477.17 394.34C477.689 393.754 478.428 393.461 479.385 393.461C479.693 393.461 480.002 393.494 480.311 393.561C480.619 393.627 480.861 393.705 481.037 393.795L480.738 394.621C480.523 394.535 480.289 394.465 480.035 394.41C479.781 394.352 479.557 394.322 479.361 394.322C478.057 394.322 477.404 395.154 477.404 396.818C477.404 397.607 477.562 398.213 477.879 398.635C478.199 399.057 478.672 399.268 479.297 399.268C479.832 399.268 480.381 399.152 480.943 398.922V399.783C480.514 400.006 479.973 400.117 479.32 400.117ZM488.016 396.783C488.016 397.83 487.752 398.648 487.225 399.238C486.697 399.824 485.969 400.117 485.039 400.117C484.465 400.117 483.955 399.982 483.51 399.713C483.064 399.443 482.721 399.057 482.479 398.553C482.236 398.049 482.115 397.459 482.115 396.783C482.115 395.736 482.377 394.922 482.9 394.34C483.424 393.754 484.15 393.461 485.08 393.461C485.979 393.461 486.691 393.76 487.219 394.357C487.75 394.955 488.016 395.764 488.016 396.783ZM483.123 396.783C483.123 397.604 483.287 398.229 483.615 398.658C483.943 399.088 484.426 399.303 485.062 399.303C485.699 399.303 486.182 399.09 486.51 398.664C486.842 398.234 487.008 397.607 487.008 396.783C487.008 395.967 486.842 395.348 486.51 394.926C486.182 394.5 485.695 394.287 485.051 394.287C484.414 394.287 483.934 394.496 483.609 394.914C483.285 395.332 483.123 395.955 483.123 396.783ZM497.912 400V395.822C497.912 395.311 497.803 394.928 497.584 394.674C497.365 394.416 497.025 394.287 496.564 394.287C495.959 394.287 495.512 394.461 495.223 394.809C494.934 395.156 494.789 395.691 494.789 396.414V400H493.816V395.822C493.816 395.311 493.707 394.928 493.488 394.674C493.27 394.416 492.928 394.287 492.463 394.287C491.854 394.287 491.406 394.471 491.121 394.838C490.84 395.201 490.699 395.799 490.699 396.631V400H489.727V393.578H490.518L490.676 394.457H490.723C490.906 394.145 491.164 393.9 491.496 393.725C491.832 393.549 492.207 393.461 492.621 393.461C493.625 393.461 494.281 393.824 494.59 394.551H494.637C494.828 394.215 495.105 393.949 495.469 393.754C495.832 393.559 496.246 393.461 496.711 393.461C497.438 393.461 497.98 393.648 498.34 394.023C498.703 394.395 498.885 394.99 498.885 395.811V400H497.912ZM503.607 400.117C502.658 400.117 501.908 399.828 501.357 399.25C500.811 398.672 500.537 397.869 500.537 396.842C500.537 395.807 500.791 394.984 501.299 394.375C501.811 393.766 502.496 393.461 503.355 393.461C504.16 393.461 504.797 393.727 505.266 394.258C505.734 394.785 505.969 395.482 505.969 396.35V396.965H501.545C501.564 397.719 501.754 398.291 502.113 398.682C502.477 399.072 502.986 399.268 503.643 399.268C504.334 399.268 505.018 399.123 505.693 398.834V399.701C505.35 399.85 505.023 399.955 504.715 400.018C504.41 400.084 504.041 400.117 503.607 400.117ZM503.344 394.275C502.828 394.275 502.416 394.443 502.107 394.779C501.803 395.115 501.623 395.58 501.568 396.174H504.926C504.926 395.561 504.789 395.092 504.516 394.768C504.242 394.439 503.852 394.275 503.344 394.275Z" fill="white"/>
<rect x="465" y="343" width="30" height="30" rx="8" fill="white"/>
<path d="M481.537 358.164C483.512 358.164 485.118 356.557 485.118 354.582C485.118 352.607 483.512 351 481.537 351C479.562 351 477.955 352.607 477.955 354.582C477.955 356.557 479.562 358.164 481.537 358.164ZM481.112 352.476V352.379C481.112 352.145 481.302 351.955 481.537 351.955C481.771 351.955 481.961 352.145 481.961 352.379V352.477C482.466 352.585 482.845 353.035 482.845 353.572C482.845 353.806 482.655 353.996 482.421 353.996C482.187 353.996 481.997 353.806 481.997 353.572C481.997 353.422 481.875 353.3 481.726 353.3H481.345C481.196 353.3 481.074 353.422 481.074 353.572C481.074 353.657 481.115 353.739 481.184 353.79L481.537 354.051L482.394 354.686C482.676 354.894 482.845 355.227 482.848 355.578V355.582C482.85 355.881 482.735 356.163 482.525 356.376C482.369 356.534 482.173 356.641 481.961 356.685V356.784C481.961 357.019 481.771 357.209 481.537 357.209C481.302 357.209 481.112 357.019 481.112 356.784V356.687C480.905 356.642 480.715 356.541 480.561 356.389C480.348 356.178 480.23 355.898 480.228 355.599C480.227 355.365 480.416 355.173 480.65 355.172H480.653C480.886 355.172 481.075 355.36 481.077 355.594C481.077 355.74 481.195 355.863 481.35 355.863C481.584 355.862 481.497 355.863 481.73 355.861C481.88 355.86 482 355.738 481.999 355.588V355.584C481.999 355.499 481.958 355.418 481.889 355.367L481.537 355.106L480.679 354.472C480.395 354.261 480.225 353.925 480.225 353.572C480.225 353.034 480.606 352.584 481.112 352.476Z" fill="#439F90"/>
<path d="M475.733 360.202C475.624 360.013 475.383 359.948 475.193 360.057L473.198 361.209C473.009 361.318 472.944 361.56 473.053 361.749L475.092 365.281C475.201 365.47 475.443 365.535 475.632 365.426L477.628 364.274C477.817 364.165 477.881 363.923 477.772 363.734L475.733 360.202Z" fill="#439F90"/>
<path d="M487.166 359.497C486.974 359.23 486.603 359.17 486.336 359.362C485.528 359.944 483.976 361.062 483.853 361.151C483.796 361.2 483.736 361.243 483.674 361.282C483.43 361.436 483.147 361.518 482.851 361.518H480.819C480.585 361.518 480.395 361.328 480.395 361.094C480.395 360.859 480.586 360.669 480.819 360.669H482.992C483.312 360.669 483.567 360.404 483.554 360.084C483.542 359.78 483.283 359.545 482.979 359.545H481.325C481.213 359.427 481.09 359.318 480.959 359.221C480.506 358.888 479.948 358.69 479.343 358.69C478.267 358.69 477.197 359.368 476.754 360.272L478.489 363.278H481.744C482.383 363.278 483.012 363.114 483.566 362.795C483.758 362.685 483.964 362.552 484.187 362.392C485.12 361.722 487.03 360.328 487.031 360.327C487.298 360.135 487.358 359.763 487.166 359.497Z" fill="#439F90"/>
<defs>
<filter id="filter0_d_2_229" x="256" y="0" width="352" height="162" filterUnits="userSpaceOnUse" color-interpolation-filters="sRGB">
<feFlood flood-opacity="0" result="BackgroundImageFix"/>
<feColorMatrix in="SourceAlpha" type="matrix" values="0 0 0 0 0 0 0 0 0 0 0 0 0 0 0 0 0 0 127 0" result="hardAlpha"/>
<feOffset dy="14"/>
<feGaussianBlur stdDeviation="19"/>
<feComposite in2="hardAlpha" operator="out"/>
<feColorMatrix type="matrix" values="0 0 0 0 0 0 0 0 0 0 0 0 0 0 0 0 0 0 0.07 0"/>
<feBlend mode="normal" in2="BackgroundImageFix" result="effect1_dropShadow_2_229"/>
<feBlend mode="normal" in="SourceGraphic" in2="effect1_dropShadow_2_229" result="shape"/>
</filter>
<filter id="filter1_dd_2_229" x="287" y="29" width="80" height="76" filterUnits="userSpaceOnUse" color-interpolation-filters="sRGB">
<feFlood flood-opacity="0" result="BackgroundImageFix"/>
<feColorMatrix in="SourceAlpha" type="matrix" values="0 0 0 0 0 0 0 0 0 0 0 0 0 0 0 0 0 0 127 0" result="hardAlpha"/>
<feOffset dx="4" dy="2"/>
<feGaussianBlur stdDeviation="8"/>
<feColorMatrix type="matrix" values="0 0 0 0 0.534167 0 0 0 0 0.645967 0 0 0 0 0.749167 0 0 0 0.48 0"/>
<feBlend mode="normal" in2="BackgroundImageFix" result="effect1_dropShadow_2_229"/>
<feColorMatrix in="SourceAlpha" type="matrix" values="0 0 0 0 0 0 0 0 0 0 0 0 0 0 0 0 0 0 127 0" result="hardAlpha"/>
<feOffset dx="-4" dy="-2"/>
<feGaussianBlur stdDeviation="8"/>
<feColorMatrix type="matrix" values="0 0 0 0 1 0 0 0 0 1 0 0 0 0 1 0 0 0 1 0"/>
<feBlend mode="normal" in2="effect1_dropShadow_2_229" result="effect2_dropShadow_2_229"/>
<feBlend mode="normal" in="SourceGraphic" in2="effect2_dropShadow_2_229" result="shape"/>
</filter>
<linearGradient id="paint0_linear_2_229" x1="34.704" y1="300.62" x2="348.099" y2="184.825" gradientUnits="userSpaceOnUse">
<stop stop-color="#8679E4"/>
<stop offset="1" stop-color="#7264D6"/>
</linearGradient>
</defs>
</svg>
